<svg enable-background="new 0 0 1102.2 321.8" viewBox="0 0 1102.2 321.8" xmlns="http://www.w3.org/2000/svg" aria-label="logo" class="h-5 w-auto"><path d="m871 250.1h35.8v37.7h-35.8z" fill="#ff8f28"></path><path d="m708.7 223.3v4.2h36v-60.3c0 16.5-6.7 32.3-18.5 43.9-5.1 5.1-11 9.2-17.5 12.2z" fill="#be78ff"></path><path d="m708.7 88v79.2z" fill="#be78ff"></path><path d="m329.9 191.9h-37.3v35.5h37.3z" fill="#ff50a4"></path><path d="m993.4 195.7h35.6v35.6h-35.6z" fill="#04e1ff"></path><path d="m181.6 92.2v-4.2h-36v60.3c0-16.5 6.7-32.3 18.5-43.9 5.1-5.1 11.1-9.2 17.5-12.2z" fill="#be78ff"></path><g fill="#08124c"><path d="m871 96.2c-10.7-6.3-23.1-10-36.4-10-39.4 0-71.5 32.1-71.5 71.5s32.1 71.5 71.5 71.5c13.3 0 25.7-3.6 36.4-10v30.7h35.8v-161.9h-35.8zm-36.4 97.8c-20 0-36.2-16.3-36.2-36.2 0-20 16.3-36.2 36.2-36.2s36.2 16.3 36.2 36.2-16.2 36.2-36.2 36.2z"></path><path d="m847.3 145.1c-2.5-2.5-5.7-4.2-9.2-4.9s-7.1-.3-10.3 1c-3.3 1.4-6.1 3.6-8 6.6-2 2.9-3 6.4-3 9.9 0 4.7 1.9 9.3 5.2 12.7 3.4 3.4 7.9 5.2 12.7 5.2 3.5 0 7-1 9.9-3s5.2-4.8 6.6-8c1.4-3.3 1.7-6.9 1-10.3-.7-3.5-2.4-6.7-4.9-9.2z"></path><path d="m476.1 37.2h-36.5v50.8 35.8 45.3c0 16.5 6.8 32.2 18.8 43.9 12 11.6 28.3 18.2 45.3 18.2v-35.6c-7.3 0-14.3-2.8-19.4-7.8-5.2-5-8.1-11.8-8.1-18.8v-45.2h42.6v-35.8h-42.6v-50.8z"></path><path d="m573.3 88h-35.8v61.3 78.1h35.5.3v-82.1c.9-5.5 3.4-10.7 7.5-14.7 5-4.9 11.8-7.7 18.9-7.7v-34.9c-9.2 0-18.2 2-26.4 5.8z"></path><path d="m708.7 167.2c0 7.1-2.9 13.9-7.9 18.9-5.1 5-12 7.8-19.2 7.8s-14.1-2.8-19.2-7.8-7.9-11.8-7.9-18.9v-79.2h-36v79.2c0 16.5 6.7 32.3 18.5 43.9 11.8 11.7 27.9 18.2 44.6 18.2 9.5 0 18.7-2.1 27.1-6 6.4-3 12.4-7.1 17.5-12.2 11.8-11.7 18.5-27.5 18.5-43.9v-79.2h-36z"></path><path d="m114.5 99.7c-5.4 2.2-11.2 3.4-17.1 3.3-5.8 0-11.6-1.1-17-3.3h-.4-.3v127.7h35.8v-128.1l-.6.3z"></path><path d="m115.7 42.2c-2.2-2.2-4.9-3.9-7.8-5-3-1.3-6.2-2-9.5-2-6.5.1-12.7 2.6-17.4 7-2.2 2.2-4 4.7-5.2 7.5-1.2 2.9-1.9 5.9-1.9 9 0 3.2.6 6.3 1.9 9.2 2.5 5.7 7.1 10.2 13 12.6 3 1.2 6.3 1.8 9.6 1.8s6.5-.6 9.5-1.8c2.9-1.2 5.6-2.9 7.9-5 2.2-2.2 4-4.7 5.2-7.5 1.3-2.9 2-6 2-9.2 0-3.1-.7-6.2-2-9-1.2-2.8-3-5.4-5.3-7.6z"></path><path d="m407.5 153.2c-4.2-3.7-9-6.6-14.3-8.5-5.6-2.1-11.5-3.2-17.5-3.1h-37.7c-1.2 0-2.4-.2-3.5-.7-1.1-.4-2.1-1.1-2.9-1.9-.9-.9-1.5-1.9-2-3s-.7-2.3-.7-3.5c0-2.3 1-4.6 2.7-6.3s4-2.6 6.4-2.6h73.4v-35.6h-73.4c-12 0-23.5 4.7-32.1 12.9-4.1 4.1-7.4 8.8-9.7 14.1-4.6 11.1-4.6 23.6 0 34.7 2.3 5.3 5.6 10.1 9.7 14.2s9 7.3 14.3 9.5c5.6 2.4 11.6 3.5 17.6 3.5h37.7c2.2-.1 4.4.3 6.4 1.2.9.5 1.6 1.2 2.1 2.1s.7 1.9.5 2.9c0 1.1-.3 2.3-.8 3.3s-1.2 2-2 2.8c-.8.9-1.8 1.5-2.9 2s-2.3.7-3.5.7h-45.5v35.5h45.5c6.1.1 12.1-1 17.7-3.2 5.3-2.3 10.2-5.5 14.3-9.5 4.1-4.1 7.4-8.9 9.7-14.1 2.4-5.5 3.6-11.4 3.6-17.4.1-5.6-1.1-11.2-3.3-16.4-2.2-5.1-5.6-9.8-9.8-13.6z"></path><path d="m974 187.8c-5.2-5-8.1-11.8-8.1-18.8v-45.2h44.5v-35.8h-44.5v-50.8h-36.5v50.8 35.8 45.3c0 16.5 6.8 32.2 18.8 43.9 12 11.6 28.3 18.2 45.3 18.2v-35.6c-7.4 0-14.4-2.8-19.5-7.8z"></path><path d="m208.7 86.1c-9.5 0-18.7 2.1-27.1 6-6.4 3-12.4 7.1-17.5 12.2-11.8 11.7-18.5 27.5-18.5 43.9v79.2h36v-79.2c0-7.1 2.9-13.9 7.9-18.9 5.1-5 12-7.8 19.2-7.8s14.1 2.8 19.2 7.8 7.9 11.8 7.9 18.9v79.2h36v-79.2c0-16.5-6.7-32.3-18.5-43.9s-27.8-18.1-44.6-18.2z"></path></g></svg>