<svg xmlns="http://www.w3.org/2000/svg" viewBox="59.513 -48.227 412.574 362.1968" width="412.574px" height="362.197px">
  <path d="M 90.145 302.005 L 90.145 294.52 L 68.002 294.52 L 68.002 257.72 L 59.513 257.72 L 59.513 302.005 L 90.145 302.005 Z M 111.406 300.653 C 113.286 299.25 114.727 297.341 115.559 295.148 L 115.559 302.005 L 123.673 302.005 L 123.673 280.621 C 123.703 278.459 123.096 276.335 121.928 274.514 C 120.746 272.706 119.068 271.276 117.095 270.396 C 114.726 269.361 112.159 268.858 109.574 268.922 C 108.035 268.915 106.499 269.05 104.985 269.323 C 103.554 269.588 102.152 269.988 100.797 270.518 C 99.545 271.015 98.337 271.616 97.185 272.316 L 97.43 279.923 C 99.255 278.699 101.22 277.697 103.284 276.94 C 105.325 276.23 107.474 275.879 109.635 275.901 C 111.2 275.805 112.747 276.273 113.997 277.219 C 115.021 278.048 115.601 279.305 115.568 280.621 L 115.568 282.82 L 108.37 282.82 C 104.049 282.82 100.632 283.733 98.119 285.56 C 95.652 287.275 94.228 290.129 94.341 293.132 C 94.318 294.841 94.752 296.525 95.597 298.009 C 96.461 299.469 97.723 300.652 99.236 301.421 C 100.918 302.285 102.789 302.717 104.68 302.677 C 107.082 302.753 109.444 302.042 111.406 300.653 Z M 104.078 295.148 C 103.172 294.468 102.665 293.382 102.725 292.251 C 102.684 290.86 103.407 289.557 104.61 288.857 C 106.332 287.954 108.27 287.54 110.211 287.662 L 115.446 287.662 L 115.446 288.918 C 115.427 290.045 115.127 291.148 114.573 292.129 C 113.927 293.298 112.993 294.283 111.86 294.991 C 110.623 295.795 109.174 296.211 107.698 296.186 C 106.411 296.243 105.139 295.879 104.078 295.148 Z M 149.524 300.548 C 151.516 298.736 152.973 296.412 153.738 293.83 L 153.738 302.005 L 161.982 302.005 L 161.982 269.925 L 153.738 269.925 L 153.738 284.896 C 153.77 286.862 153.429 288.816 152.734 290.655 C 152.154 292.225 151.141 293.598 149.812 294.616 C 148.526 295.56 146.966 296.056 145.371 296.029 C 143.796 296.128 142.253 295.55 141.131 294.441 C 140.062 293.157 139.53 291.51 139.648 289.843 L 139.648 269.925 L 131.412 269.925 L 131.412 289.992 C 131.412 294.144 132.398 297.343 134.369 299.589 C 136.383 301.893 139.339 303.152 142.396 303.009 C 144.995 303.102 147.536 302.225 149.524 300.548 Z M 179.187 302.023 L 179.187 287.034 C 179.155 285.068 179.496 283.115 180.19 281.276 C 180.767 279.711 181.771 278.339 183.087 277.315 C 184.358 276.367 185.908 275.87 187.493 275.901 C 189.065 275.798 190.607 276.369 191.733 277.472 C 192.801 278.753 193.332 280.397 193.216 282.061 L 193.216 302.005 L 201.522 302.005 L 201.522 281.939 C 201.522 277.786 200.524 274.587 198.529 272.342 C 196.504 270.061 193.559 268.814 190.512 268.948 C 187.906 268.846 185.357 269.731 183.375 271.426 C 181.405 273.245 179.959 275.559 179.187 278.126 L 179.187 269.925 L 170.951 269.925 L 170.951 302.005 L 179.187 302.023 Z M 229.222 302.712 C 230.236 302.561 231.237 302.331 232.215 302.023 C 233.14 301.726 233.96 301.438 234.832 301.15 L 234.893 293.351 C 233.563 294.019 232.157 294.526 230.705 294.86 C 229.253 295.199 227.765 295.369 226.273 295.366 C 224.344 295.433 222.429 295.01 220.707 294.136 C 219.282 293.384 218.126 292.207 217.401 290.768 C 215.971 287.729 215.971 284.21 217.401 281.171 C 218.132 279.73 219.285 278.546 220.707 277.777 C 222.383 276.895 224.258 276.462 226.151 276.521 C 227.71 276.513 229.264 276.704 230.775 277.088 C 232.194 277.456 233.573 277.961 234.893 278.597 L 234.832 270.606 C 233.951 270.257 233.047 269.965 232.128 269.733 C 230.072 269.207 227.959 268.944 225.837 268.948 C 222.52 268.866 219.237 269.635 216.301 271.181 C 213.68 272.584 211.511 274.702 210.046 277.289 C 208.553 279.98 207.792 283.015 207.839 286.092 C 207.79 289.147 208.561 292.16 210.072 294.816 C 211.555 297.368 213.738 299.442 216.362 300.793 C 219.275 302.264 222.505 302.998 225.767 302.93 C 226.912 302.938 228.055 302.859 229.187 302.694 L 229.222 302.712 Z M 250.458 302.023 L 250.458 287.034 C 250.426 285.068 250.766 283.115 251.461 281.276 C 252.041 279.706 253.055 278.332 254.384 277.315 C 255.645 276.381 257.177 275.884 258.746 275.901 C 260.338 275.79 261.902 276.361 263.047 277.472 C 264.115 278.753 264.647 280.397 264.53 282.061 L 264.53 302.005 L 272.766 302.005 L 272.766 281.939 C 272.766 277.786 271.781 274.587 269.809 272.342 C 267.8 270.059 264.864 268.811 261.826 268.948 C 259.21 268.848 256.651 269.732 254.654 271.426 C 252.669 273.236 251.212 275.552 250.44 278.126 L 250.44 257.72 L 242.327 257.72 L 242.327 302.005 L 250.458 302.023 Z M 299.272 302.023 C 303.44 302.146 307.572 301.216 311.285 299.318 C 314.523 297.586 317.156 294.908 318.832 291.64 C 320.624 288.006 321.507 283.992 321.406 279.941 C 321.501 275.882 320.618 271.861 318.832 268.215 C 317.159 264.931 314.527 262.232 311.285 260.476 C 307.578 258.559 303.444 257.616 299.272 257.737 L 282.25 257.737 L 282.25 302.005 L 299.272 302.023 Z M 290.713 294.52 L 290.713 265.205 L 299.141 265.205 C 303.381 265.205 306.705 266.496 309.113 269.079 C 311.521 271.661 312.728 275.276 312.734 279.923 C 312.734 284.577 311.527 288.174 309.113 290.716 C 306.699 293.257 303.375 294.525 299.141 294.52 L 290.713 294.52 Z M 342.99 300.627 C 344.867 299.221 346.307 297.312 347.143 295.122 L 347.143 301.979 L 355.274 301.979 L 355.274 280.621 C 355.317 278.463 354.726 276.34 353.573 274.514 C 352.378 272.7 350.684 271.27 348.696 270.396 C 346.33 269.362 343.766 268.859 341.184 268.922 C 339.643 268.915 338.104 269.05 336.586 269.323 C 335.159 269.588 333.759 269.988 332.407 270.518 C 331.151 271.013 329.94 271.615 328.787 272.316 L 329.04 279.923 C 330.864 278.697 332.829 277.695 334.894 276.94 C 336.935 276.23 339.084 275.878 341.245 275.901 C 342.81 275.803 344.359 276.271 345.608 277.219 C 346.633 278.047 347.217 279.304 347.187 280.621 L 347.187 282.82 L 340.015 282.82 C 335.653 282.82 332.276 283.692 329.755 285.56 C 327.293 287.279 325.873 290.131 325.986 293.132 C 325.963 294.841 326.397 296.525 327.242 298.009 C 328.095 299.466 329.345 300.649 330.846 301.421 C 332.525 302.285 334.393 302.717 336.281 302.677 C 338.701 302.764 341.083 302.053 343.06 300.653 L 342.99 300.627 Z M 335.662 295.122 C 334.77 294.445 334.273 293.369 334.335 292.251 C 334.294 290.86 335.017 289.557 336.22 288.857 C 337.942 287.953 339.88 287.54 341.821 287.662 L 347.056 287.662 L 347.056 288.918 C 347.032 290.044 346.733 291.146 346.183 292.129 C 345.539 293.297 344.609 294.282 343.479 294.991 C 342.236 295.798 340.781 296.214 339.3 296.186 C 338.015 296.243 336.746 295.878 335.688 295.148 L 335.662 295.122 Z M 371.851 302.005 L 371.851 288.334 C 371.851 284.774 372.601 282.052 374.111 280.194 C 375.585 278.342 377.852 277.303 380.218 277.393 C 381.368 277.384 382.513 277.552 383.612 277.891 L 383.612 270.012 C 383.088 269.851 382.551 269.737 382.006 269.672 C 381.427 269.602 380.844 269.57 380.261 269.576 C 378.313 269.56 376.444 270.349 375.096 271.757 C 373.541 273.403 372.425 275.413 371.851 277.603 L 371.851 269.925 L 363.606 269.925 L 363.606 302.005 L 371.851 302.005 Z M 397.074 302.005 L 397.074 291.623 L 400.031 288.796 L 409.628 302.005 L 419.312 302.005 L 405.606 283.256 L 419.059 269.925 L 408.747 269.925 L 397.047 281.354 L 397.047 257.798 L 388.934 257.798 L 388.934 302.005 L 397.074 302.005 Z M 432.617 302.005 L 432.617 257.72 L 424.434 257.72 L 424.434 302.005 L 432.617 302.005 Z M 445.137 313.958 C 447.736 314.067 450.312 313.421 452.553 312.1 C 454.478 310.861 456.072 308.711 457.334 305.652 L 472.087 269.925 L 463.659 269.925 L 454.935 292.382 L 446.114 269.925 L 437.686 269.925 L 450.895 301.944 L 450.197 303.576 C 449.876 304.533 449.266 305.368 448.452 305.966 C 447.452 306.54 446.305 306.804 445.154 306.725 L 438.306 306.725 L 438.306 313.958 L 445.137 313.958 Z" fill="black" transform="matrix(1, 0, 0, 1, 7.105427357601002e-15, 0)"></path>
  <path d="M 253.514 235.425 C 251.333 235.425 249.151 234.175 247.9 231.977 C 246.969 229.781 246.969 227.592 248.525 225.708 L 314.922 133.878 L 198.653 181.517 C 197.716 181.83 197.098 182.142 196.16 182.142 C 193.353 182.142 190.865 180.266 190.239 177.757 C 189.301 175.247 190.551 172.426 192.733 170.862 L 294.972 110.371 L 115.115 100.022 C 111.377 99.708 109.195 96.887 109.195 93.759 C 109.195 90.938 111.063 87.803 115.115 87.49 L 294.972 77.147 L 192.733 16.649 C 190.551 15.086 189.301 12.264 190.239 9.755 C 191.169 7.254 193.353 5.369 196.16 5.369 C 197.098 5.369 197.716 5.681 198.653 5.995 L 314.922 53.641 L 248.525 -38.509 C 247.282 -40.394 246.969 -42.894 247.9 -44.779 C 248.839 -46.975 251.021 -48.227 253.514 -48.227 C 255.071 -48.227 256.628 -47.6 257.88 -46.342 L 390.038 86.232 C 391.908 88.115 392.846 90.938 392.846 93.446 C 392.846 95.948 391.908 98.458 390.038 100.654 L 257.88 233.541 C 256.628 234.8 255.071 235.425 253.514 235.425 Z" fill="black" style="" transform="matrix(1, 0, 0, 1, 7.105427357601002e-15, 0)"></path>
</svg>